# xmcd
#
# Track frame offsets:
#	150
#	15315
#	32730
#	46512
#	65615
#	79802
#	90340
#	104977
#	121150
#	136387
#	149925
#	163455
#	177050
#
# Disc length: 2485 seconds
#
# Revision: 2
# Processed by: cddbd v1.5.2PL0 Copyright (c) Steve Scherf et al.
# Submitted via: audiograbber 1.83.01
#
DISCID=b109b30d
DTITLE=Slim Dusty - Ninety Nine '99
DYEAR=1999
DGENRE=Country
TTITLE0=Bindi-Eye Ball (featuring Anne Kirkpatrick)
TTITLE1=The Swagless Swaggie
TTITLE2=Abalinga Mail
TTITLE3=Banjo
TTITLE4=Diggin' A Hole
TTITLE5=It's Good To See You Mate
TTITLE6=The Ghost Of Ben Hall
TTITLE7=Kelly's Country Kitchen
TTITLE8=Outback
TTITLE9=No Bids For The Bay
TTITLE10=When Mustering's In Full Swing (featuring David Kirkpatrick and Larry Mu
TTITLE10=hoberac on Piano)
TTITLE11=Bushman's Prayer
TTITLE12=Along The Road To Nulla Nulla (Instrumental)
EXTD=1999 EMI Music Australia
EXTT0=
EXTT1=
EXTT2=
EXTT3=
EXTT4=
EXTT5=
EXTT6=
EXTT7=
EXTT8=
EXTT9=
EXTT10=
EXTT11=
EXTT12=
PLAYORDER=
